Coordinates
version=1
nRows=15
nColumns=19
inDegrees=yes

Units are S.I. units (second, meters, Newtons, ...)
If the header above contains a line with 'inDegrees', this indicates whether rotational values are in degrees (yes) or radians (no).

endheader
time	pelvis_tilt	pelvis_list	pelvis_rotation	pelvis_tx	pelvis_ty	pelvis_tz	hip_flexion_r	hip_adduction_r	hip_rotation_r	knee_angle_r	knee_angle_r_beta	ankle_angle_r	hip_flexion_l	hip_adduction_l	hip_rotation_l	knee_angle_l	knee_angle_l_beta	ankle_angle_l
     11.50666667	     -7.85361876	     -2.85839254	      1.46056675	      2.16484915	      1.03171771	      1.03658034	     26.88162661	      3.77198921	     -9.91478888	     12.13276445	      0.21175669	      5.23289398	    -10.50535616	     -7.13543927	     -7.46907463	     47.79595978	      0.83419687	     -2.84682908
     11.51333333	     -7.72525320	     -2.73777759	      1.50408432	      2.16463386	      1.02774309	      1.03710774	     27.20474171	      3.56592223	     -9.63026255	     13.36952665	      0.23334226	      4.77599413	     -9.80259160	     -6.96462994	     -6.14407030	     51.42612090	      0.89755513	     -2.60757998
     11.52000000	     -7.49342897	     -2.63173448	      1.45420204	      2.16407968	      1.02352974	      1.03758870	     27.63671671	      3.35049334	     -9.41929546	     15.38983481	      0.26860329	      4.51823939	     -9.13581838	     -6.73187360	     -4.93973781	     55.09999911	      0.96167640	     -2.42897227
     11.52666667	     -7.70989780	     -2.45251863	      1.35811441	      2.16310689	      1.01826591	      1.03787942	     28.79512498	      2.96563621	     -9.37909945	     18.20982368	      0.31782138	      4.50262362	     -7.83904747	     -6.34009087	     -3.77765913	     58.96527783	      1.02913824	     -2.22568695
     11.53333333	     -7.63178374	     -2.29220633	      1.24319931	      2.16199721	      1.01299487	      1.03802620	     29.68492197	      2.58473993	     -9.37078126	     21.38621746	      0.37325991	      4.70919944	     -6.82076470	     -5.94826910	     -2.78057381	     62.76869618	      1.09552042	     -2.06848551
     11.54000000	     -7.54863829	     -2.14577663	      1.09907060	      2.16072656	      1.00731583	      1.03802833	     30.59301369	      2.19960718	     -9.35207875	     24.81866252	      0.43316738	      5.20268279	     -5.74527344	     -5.56108965	     -1.94631619	     66.57333367	      1.16192387	     -1.88284454
     11.54666667	     -7.39281781	     -1.98045060	      0.93796277	      2.15929596	      1.00144672	      1.03795089	     31.39257172	      1.80339176	     -9.27569705	     28.33802475	      0.49459184	      5.97891629	     -4.68941227	     -5.15371506	     -1.25282046	     70.32586905	      1.22741796	     -1.68673678
     11.55333333	     -7.04600123	     -1.81868851	      0.79711864	      2.15776655	      0.99569995	      1.03777772	     31.87432264	      1.43097036	     -9.13151589	     31.74313696	      0.55402225	      7.08281294	     -3.78435966	     -4.76820316	     -0.67235359	     73.98338346	      1.29125363	     -1.44016087
     11.56000000	     -7.06622012	     -1.78869195	      0.58982296	      2.15610407	      0.98943367	      1.03770797	     32.63794491	      1.25394812	     -8.89593569	     34.97198382	      0.61037626	      8.39417326	     -2.40463285	     -4.56684664	     -0.27353499	     77.63350486	      1.35496027	     -1.10726458
     11.56666667	     -6.93853505	     -1.80964221	      0.41873833	      2.15433934	      0.98355361	      1.03761898	     33.07218653	      1.16158832	     -8.64540304	     37.90215650	      0.66151742	      9.95056280	     -1.11229573	     -4.45731499	      0.06036951	     81.15517783	      1.41642506	     -0.72653921
     11.57333333	     -6.37720715	     -2.04631936	      0.26714869	      2.15264331	      0.97865408	      1.03755139	     32.77941889	      1.34395668	     -8.43245554	     40.34559594	      0.70416349	     11.65447294	     -0.25861536	     -4.65797087	      0.27328618	     84.46271141	      1.47415241	     -0.28038786
     11.58000000	     -6.83644393	     -2.13091797	      0.16716746	      2.15057489	      0.97273482	      1.03758810	     33.55230658	      1.34713160	     -8.22658453	     42.73665315	      0.74589531	     13.43926426	      1.90088361	     -4.67202148	      0.61386362	     87.81829950	      1.53271847	      0.14065948
     11.58666667	     -6.84332455	     -2.43947510	      0.14834644	      2.14864491	      0.96805694	      1.03760205	     33.54884417	      1.58992159	     -8.15804671	     44.58964129	      0.77823605	     15.23312432	      3.61857861	     -4.99438052	      0.93910335	     90.91324510	      1.58673546	      0.60894942
     11.59333333	     -6.47220709	     -2.84506772	      0.10797711	      2.14684545	      0.96452453	      1.03776115	     32.91371690	      2.00508953	     -8.07518304	     46.02104764	      0.80321881	     17.01418430	      4.94882532	     -5.45381888	      1.20007930	     93.71076904	      1.63556146	      1.11343936
     11.60000000	     -6.04146780	     -3.17425124	      0.07301588	      2.14508451	      0.96173979	      1.03806852	     32.05810802	      2.37023068	     -7.98775025	     47.16716219	      0.82322228	     18.60321593	      6.28396878	     -5.91176786	      1.36132434	     96.23500869	      1.67961776	      1.50350899
